<svg id="レイヤー_1" data-name="レイヤー 1" xmlns="http://www.w3.org/2000/svg" viewBox="0 0 2735.52 719.15"><defs><style>.cls-1{fill:#d70051;}</style></defs><text x="-195.41" y="-89.9"/><path class="cls-1" d="M553.69,766.07a83.45,83.45,0,0,1-6.26-14.88A45.84,45.84,0,0,1,545.69,734l6.26-1.42,5.22-31.64V651.76l-3.48-25L552,624.84v-5.67h-2.09v-1.42l3.14-3.3h1.74v-3.78h-4.88A227.81,227.81,0,0,0,495.06,627q-26.28,11.58-52.72,23.39L441,652.23h-3.14l-4.87-.47-19.83,18.42V674a59.51,59.51,0,0,1,10.26,18.66,67,67,0,0,1,3.66,22l-7.31,4.73-14.62-13.7v-2.36L402,700.89a91.25,91.25,0,0,0-12.35-25.51q-8.17-11.8-15.83-23.15h.34l20.88,9,26.45-18.42v-4.25l-3.83-1.89q34.1-12.28,68.21-24.09A314.28,314.28,0,0,1,557.17,597l3.13.95,4.88-.95,4.17.95.7-2.37h2.43a46.28,46.28,0,0,0,16.71,6.85,32.84,32.84,0,0,1,16,8.27l3.48,8.5-13.92,7.56-3.82,13.7q-3.13.95-2.61,4.48a15.19,15.19,0,0,1-.53,6.85q-5.22,27.88-11,55.74a545.61,545.61,0,0,1-13.74,53.37l-9.4,2.37ZM421.46,513.84q-4.87-2.84-9.57-5.67a20.31,20.31,0,0,1-7.48-8q28.53-8.5,58.11-16.53T522.37,469l5.92,1.41L539.42,469l8,6.61v3.3a12.29,12.29,0,0,1-7.66,6.85,20,20,0,0,1-10.09.71l-12.53-.94-16.7.94-7-.94Q475.75,494,458,501.56A246.25,246.25,0,0,1,421.46,513.84Zm68.2,80.3-4.52-3.31-2.78-6.61h-3.14q-4.17,5.21-8.7,6.37a44.63,44.63,0,0,1-11.13,1.18l-11.14-9.91a61.34,61.34,0,0,1-8.17-13.7,50,50,0,0,1-4-16.06l-9-7.56-2.44-3.31h3.48l9.74,1.89,12.88-13.69v-2.84l37.58-17.48,1.39-3.3h3.83l5.22,1.89v-1.89h1.74L518.89,511l5.22,8v3.78l-13.22,17q-3.13,13.7-6.79,26.68a254.09,254.09,0,0,1-8.52,25.27ZM466,723.09l-19.83-18.43q1-11.32-4.18-18.65a58.24,58.24,0,0,1-8-15.83h1l16.7,5.67,3.83-1.89q4.88,4.72,10.09,9.69a41.82,41.82,0,0,1,8.7,12l.7,3.78,15.66,1.42v-6.14l-2.44-31.18h-3.13L473,668.77l-10.09-12.28v-4.73a30.93,30.93,0,0,0,10.61-2.12,53.91,53.91,0,0,0,9.57-4.49l3.13-6.61h4.88v-.48h8.35l4.17.48v-.48H506A21.46,21.46,0,0,0,517.5,644a73.3,73.3,0,0,1,12.88,3.54l1.74,9a10.32,10.32,0,0,1-6.09,4.72q-3.66.94-7.83,2.36-3.48,12.28-5.92,24.8a55,55,0,0,1-9.74,22.44L491.06,716l-4.88-1.42q-5.22,2.37-10.26,5A37,37,0,0,1,466,723.09Zm18.1-258.85-4.18-2.36-23.31-24.56v-2.84l-7.31-6.61h2.78l33.06,10.39a32.89,32.89,0,0,1,4.52,10.39,39.83,39.83,0,0,1,1,11.81ZM479.92,574.3a96.48,96.48,0,0,0,3.65-22.67q.53-11.8,1.57-24.09l-5.22-.95-9.05,4.72-1,1.89-5.22,1.42-8-3.31-2.09,10.87q4.86,7.56,9.57,16.06t3.65,19.84h4.18Z" transform="translate(-195.41 -89.9)"/><path class="cls-1" d="M774.66,657a57.68,57.68,0,0,1-9.39-22,88.08,88.08,0,0,1-1-26.21l1-11.34h2.43l1-48.18h-2.08q-9.75,14.18-19.66,27.87a172.08,172.08,0,0,0-17.23,29.76h-2.43l-3.48,9.92a27.12,27.12,0,0,0-5.92,8.74q-2.45,5.43-4.52,10.62h-3.83v1.42q14.26-30.69,28.53-61.88t18.79-68.48h-4.52l-31,13.22-2.09-1.89-3.83-9.45-9.39-6.61-1.05-6.14q15.32-8,31.32-14.64T768.74,469V452.91a59.69,59.69,0,0,1-6.43-25.75q-.52-14.4-1.57-27.63h3.48l7,5.2,7.31-5.2,7,3.31v22.67l-1.05,35.43h11.84q5.91,0,8,8L800.76,485,784.4,496.36,783,521.87l25.06,25.5v9.92H797.28l-14.27-8q-2.43,27.4-3.48,54.56A493.58,493.58,0,0,1,774.66,657ZM746.47,780.71A73.46,73.46,0,0,1,736.9,763a59.17,59.17,0,0,1-3.65-21l1.39-52.9-2.43-12.76h4.87L750,685.77a42.3,42.3,0,0,1,8.36,25.74,102.33,102.33,0,0,0,3.48,27.16q-2.44,9.93-4.7,19.61a204.49,204.49,0,0,0-3.66,20.54Zm114.84-8A99.5,99.5,0,0,1,831,760.4q-15-9-25.4-26.45L784.4,690.49h4.53a81.05,81.05,0,0,0,10.79,3.31q5.91,1.43,9.39,8A194.52,194.52,0,0,1,823.9,729q6.44,14.41,18.27,21l25.05,3.31L926.38,746l244.48,20.12,252.38,14.64,428.25,14.62h354.77l724.67,13.15H1902.12c-9.51,6.61-994.07-45.79-1004.27-43.12s-20.88,5.12-32,7.32l-3.48-1.89ZM844.6,613.5l-2.43-1.41q-3.48-14.64-7-29.05t-5.92-29a61,61,0,0,0,2.44-17.72V517.14a228,228,0,0,0-4.35-25.74,100.53,100.53,0,0,0-8.87-24.32h1.39c2.31,2.2,4.87,4.65,7.65,7.32s5.69,4,8.7,4l5.92-4.72a105.81,105.81,0,0,0,1.22,16.06q1.22,8,4.69,11.33L885,483.14v-4.73l-3.48-19.36,1-4.73H885V449.6h-2.44l-16.7,9.45-2.09,5.19-4.87,2.84-2.43-22.2a78.56,78.56,0,0,0,16.7-5.91,167.19,167.19,0,0,1,16.35-6.85v-3.3l10.79-3.31,10.79,4.72v1.89l18.79,9.45,1,4.72-2.08,6.62-9.75,3.3L917,462.35l-3.83,1.89q-2.08,35-4,70.38t-6.44,69.44l-5.92,1.41L893.32,596h-3.83a71,71,0,0,1-22.27,8.5A69.08,69.08,0,0,0,844.6,613.5Zm25.06,64.24A38.13,38.13,0,0,1,850,669a98.06,98.06,0,0,0-18.27-12l-3.83-4.73v-1.88h3.83l1-4.73,26.1-1.42,14.27,9.45,4.52,6.61v2.84l-3.48,3.3-3.48,11.34Zm18.79-93v-3.31l-1-6.61a47.42,47.42,0,0,0,2.08-15.11v-17L886,488.33h-2.43l-2.09,6.14a113.79,113.79,0,0,1-17.22,11.34,132.09,132.09,0,0,1-18.27,8v11.33l1,8h2.44l34.1-14.64,1.39,8a84.48,84.48,0,0,1-17.22,13,39.62,39.62,0,0,1-19.67,5v40.15l1.4,4.72h11.83Zm91.17,102.5a33.05,33.05,0,0,0-12.35-6.38,122.05,122.05,0,0,1-13.75-4.49l-2.43,1.42L950,676.32l1.05-1.89-2.44-6.14q-4.53-6.6-11.13-8.26a22.66,22.66,0,0,1-11.14-6.38L954.92,647l7,1.89,5.92-1.89,18.79,13.22L988,666.4l-3.48,12.76h-2.43l-1.39,3.3,1.39,1.89Z" transform="translate(-195.41 -89.9)"/><path class="cls-1" d="M1198.15,614.92V613l2.44-2.36h-5.92l1.4-3.31h2.08a281.67,281.67,0,0,0,13.23-35.9q5.56-18.88,11.48-38.26h-3.13q-26.1,7.56-50.46,17t-49.41,19.36l-5.22-4.25v-2.83h-2.44l-2.78-6.14-1.74-1-4.52-6.14V545l-2.44-2.83h2.44l1-6.61,8-3.31,11.14,2.36q30.27-10.86,60.55-18.42a480,480,0,0,0,60.2-19.37v-5.19h1q11.49,6.62,21.75,13.22a168,168,0,0,1,20.36,15.59l3.83,3.31,1.74,8.5-5.57,2.36-.7,6.14-15.66,5.67v2.83q-13.56,7.1-22.09,24.8t-22.45,24.8l-9.39,2.83-5.92,9Zm40.37,78.88q-9.75-1.87-18.62-9.92t-17.57-17.48l-15-15.11a252.43,252.43,0,0,1-27.15-18.66,128.62,128.62,0,0,1-24.35-25.27v-.94h5.56q28.89,9.92,58.12,21.49T1250.7,673l4.87,14.17Z" transform="translate(-195.41 -89.9)"/><path class="cls-1" d="M1487.68,721.67l-5.22-.95-3.83-9.44-6.27-4.73-10.78-10.39,8.7-4.72c.69-2.84,1.91-4.25,3.65-4.25a6.82,6.82,0,0,0,4.7-1.89A323.82,323.82,0,0,0,1547.88,639a841.63,841.63,0,0,0,64-61.88V574.3q8.7-10.86,16.88-22.91a224.87,224.87,0,0,0,14.44-24.33h1.4v1h2.78v6.14a143.31,143.31,0,0,1-14.79,34.48Q1623,584.7,1611.9,599.8l-3.82,1.42v3.31l-8.7,10.39h-2.44l-17.75,25L1541.61,673h-2.78l-2.09,4.72A71.85,71.85,0,0,1,1524,690a156,156,0,0,1-13.75,9Zm44.89-196.5-12.18-5.66a58.13,58.13,0,0,0-14.1-14.65,57.72,57.72,0,0,1-14.09-14.64v-7.56l1.39-4.72h0v-4.72h2.78l10.1,3.3,8.7,9.45,25,10.39,6.61,19.84-6.61,8Z" transform="translate(-195.41 -89.9)"/><path class="cls-1" d="M1843,721.67q-4.51-8-9.91-16.3t-11-15.35h5.56V685.3l11.84-5.67,4.87-8.5q24.71,0,43-19.13t37.41-35.66V613h2.44v-.94l11.83-8.51v-2.83h2.43V597l4.88-1.89v-4.25h2.08V588h3.14l1.39-4.26,3.48-.94v-3.31h2.78l1-4.25,5.92-7.08,7-4.25v-2.37h2.44v-4.25l5.91-6.14v-2.83l6.27-5.67h1.74v0l-8,15.59h-2.09v4.25h2.09l12.18-12.75V554A135.41,135.41,0,0,1,1978,583.51,124.12,124.12,0,0,0,1962.67,613l-16.35,21.26-7.31,9h-2.44l-12.87,18.42q-18.79,16.55-38.46,34.25T1843,721.67Zm19.14-137.93-4.87-9.91-16.7-18a28.42,28.42,0,0,0-4.7-16.06,46.13,46.13,0,0,0-10.26-11.34h11.48v-4.25h1.39a46.42,46.42,0,0,0,17.75,10.39,49.74,49.74,0,0,1,17.4,9.45l3.83,17.47q-1.05,5.21-2.44,10.87a22.73,22.73,0,0,1-5.92,10.39Zm31.67-67.54L1883.33,512l-21.23-28.34-9.39-5.67-1.39-10.39h2.43a103.86,103.86,0,0,1,23.14,9.68,70.46,70.46,0,0,1,20.36,17.71,27,27,0,0,1,3.83,9.21,52,52,0,0,1,1,10.63Z" transform="translate(-195.41 -89.9)"/><path class="cls-1" d="M2220.18,768.43V767l-5.22-2.83-2.09-3.31-1.39-.94-3.83-9.92h-1.39a12.53,12.53,0,0,0,7.48-2.36,11.14,11.14,0,0,1,6.44-2.36,45.7,45.7,0,0,0,13.22,2.83,86.22,86.22,0,0,1,13.22,1.89l23.67-4.25v-.47h8.35l4.52-46.29h-12.87l-5.57.94a85.37,85.37,0,0,1-17,5.91,144.62,144.62,0,0,1-18.45,3.07,15.25,15.25,0,0,1-7.82-2.13,50.33,50.33,0,0,1-7.49-5.43l-7.3-7.56h2.08v-1.89h0l11.49,3.31,55.67-9.45,7.31,1.89a102.15,102.15,0,0,0,3.48-21.49q.69-11.56.7-23.38l-1.39-3.31-3.83-.94a64.92,64.92,0,0,0-25.4,5,79.74,79.74,0,0,1-25.41,5.9,47.11,47.11,0,0,0-11.83-6.14,18.85,18.85,0,0,1-10.09-8h2.78l.7-2.83,8.35-.95,2.79-3.78,8.35-.47v1.89h3.13a249.38,249.38,0,0,1,25.75-2.36q12.53-.47,26.1-.47l3.83.94,5.22-2.83V623H2302a42.89,42.89,0,0,0,11.49,6.38,51,51,0,0,1,11.48,5.9,10.77,10.77,0,0,1,2.44,4.25,18.53,18.53,0,0,1,.69,5.2h-9.39v1.89l-4.53,4.72q-4.87,21.74-8,45.11T2298.82,741h-3.13v4.25h.7v.47h-.7v1.89l3.13,2.36v4.25l-2.43,3.78h1.39l-3.13,2.83-3.48,2.84h-1.74V767h-2.09v-2.83l-3.13-.47v-1.89h-3.14v.94a5.72,5.72,0,0,0-5.22-2.83h-7.3Z" transform="translate(-195.41 -89.9)"/><path class="cls-1" d="M2548.32,721.67l-5.22-.95-3.82-9.44-6.27-4.73-10.78-10.39,8.7-4.72c.69-2.84,1.91-4.25,3.65-4.25a6.84,6.84,0,0,0,4.7-1.89A323.52,323.52,0,0,0,2608.52,639a841.73,841.73,0,0,0,64-61.88V574.3q8.7-10.86,16.88-22.91a224.87,224.87,0,0,0,14.44-24.33h1.39v1h2.79v6.14a143.31,143.31,0,0,1-14.79,34.48q-9.57,16.07-20.71,31.17l-3.82,1.42v3.31l-8.7,10.39h-2.44l-17.75,25L2602.26,673h-2.78l-2.09,4.72a72.2,72.2,0,0,1-12.7,12.28,157.46,157.46,0,0,1-13.75,9Zm44.89-196.5L2581,519.51a58.11,58.11,0,0,0-14.09-14.65,57.72,57.72,0,0,1-14.09-14.64v-7.56l1.39-4.72h0v-4.72H2557l10.1,3.3,8.69,9.45,25.06,10.39,6.61,19.84-6.61,8Z" transform="translate(-195.41 -89.9)"/><text x="-195.41" y="-89.9"/><text x="-195.41" y="-89.9"/></svg>