<svg id="レイヤー_1" data-name="レイヤー 1" xmlns="http://www.w3.org/2000/svg" viewBox="0 0 2557.11 409.58"><defs><style>.cls-1{fill:#d70051;}</style></defs><path class="cls-1" d="M273.28,380.9A83.41,83.41,0,0,1,267,366a46,46,0,0,1-1.74-17.19l6.26-1.42,5.22-31.64V266.59l-3.48-25-1.69-1.92V234H269.5v-1.42l3.14-3.3h1.74V225.5H269.5a228.22,228.22,0,0,0-54.85,16.33q-26.28,11.58-52.72,23.39l-1.34,1.84h-3.14l-4.87-.47L132.75,285v3.82A59.74,59.74,0,0,1,143,307.49a67,67,0,0,1,3.66,22l-7.31,4.73-14.62-13.7v-2.36l-3.15-2.44a91.26,91.26,0,0,0-12.35-25.51q-8.17-11.79-15.83-23.15h.34l20.88,9,26.45-18.42v-4.25l-3.83-1.89q34.09-12.27,68.21-24.09a314.7,314.7,0,0,1,71.3-15.58l3.13.95,4.88-.95,4.17.95.7-2.37h2.43a46.18,46.18,0,0,0,16.71,6.85,32.86,32.86,0,0,1,16,8.27l3.48,8.5-13.92,7.56-3.82,13.7q-3.13,1-2.61,4.48a15.13,15.13,0,0,1-.53,6.85q-5.22,27.88-11,55.74a544.54,544.54,0,0,1-13.74,53.37l-9.4,2.37ZM141.05,128.67q-4.87-2.83-9.57-5.67a20.27,20.27,0,0,1-7.48-8q28.53-8.49,58.11-16.53T242,83.83l5.92,1.41L259,83.83l8,6.61v3.3a12.26,12.26,0,0,1-7.66,6.85,20,20,0,0,1-10.09.71l-12.53-.94-16.7.94-7-.94q-17.68,8.48-35.44,16A246.27,246.27,0,0,1,141.05,128.67Zm68.2,80.3-4.52-3.31L202,199.05h-3.14q-4.17,5.22-8.7,6.37A44.4,44.4,0,0,1,179,206.6l-11.14-9.91a61.24,61.24,0,0,1-8.17-13.7,49.82,49.82,0,0,1-4-16.06l-9-7.56-2.44-3.31h3.48l9.74,1.89,12.88-13.69v-2.84l37.58-17.48,1.39-3.3h3.83l5.22,1.89v-1.89h1.74l18.39,5.19,5.22,8v3.78l-13.22,17q-3.14,13.71-6.79,26.68a255.15,255.15,0,0,1-8.52,25.27Zm-23.66,129-19.83-18.43q1-11.31-4.18-18.65a58,58,0,0,1-8-15.83h1l16.7,5.67,3.83-1.89q4.88,4.72,10.09,9.69a41.88,41.88,0,0,1,8.7,12l.7,3.78,15.66,1.42v-6.14l-2.44-31.18h-3.13l-12.1,5.24L182.5,271.32v-4.73a30.62,30.62,0,0,0,10.61-2.12,53.84,53.84,0,0,0,9.57-4.49l3.13-6.61h4.88v-.48H219l4.17.48v-.48h2.38a21.45,21.45,0,0,0,11.5,5.94A73.78,73.78,0,0,1,250,262.37l1.74,9a10.33,10.33,0,0,1-6.09,4.72q-3.66.95-7.83,2.36-3.48,12.29-5.92,24.8a54.94,54.94,0,0,1-9.74,22.44l-11.48,5.14-4.88-1.42q-5.22,2.37-10.26,5A36.77,36.77,0,0,1,185.59,337.92Zm18.1-258.85-4.18-2.36L176.2,52.15V49.31l-7.31-6.61h2.78l33.06,10.39a32.74,32.74,0,0,1,4.52,10.39,39.79,39.79,0,0,1,1,11.81Zm-4.18,110.06a96.65,96.65,0,0,0,3.65-22.67q.53-11.79,1.57-24.09l-5.22-1-9,4.72-1,1.89-5.22,1.42-8-3.31L174.15,157q4.86,7.56,9.57,16.06t3.65,19.84h4.18Z" transform="translate(-93.41 -14.36)"/><path class="cls-1" d="M494.25,271.83a57.7,57.7,0,0,1-9.39-22,88,88,0,0,1-1-26.21l1-11.34h2.43l1-48.18h-2.08q-9.75,14.19-19.66,27.87a172.58,172.58,0,0,0-17.23,29.76h-2.43l-3.48,9.92a27.1,27.1,0,0,0-5.92,8.74Q435,245.82,433,251h-3.83v1.42q14.26-30.69,28.53-61.88t18.79-68.48h-4.52l-31,13.22-2.09-1.89L435,124l-9.39-6.61-1.05-6.14q15.32-8,31.32-14.64t32.43-12.73V67.74A59.6,59.6,0,0,1,481.9,42q-.52-14.4-1.57-27.63h3.48l7,5.2,7.31-5.2,7,3.31V40.34l-1.05,35.43h11.84q5.91,0,8,8l-3.56,16.06L504,111.19l-1.4,25.51,25.06,25.5v9.92H516.87l-14.27-8q-2.43,27.4-3.48,54.56A492.76,492.76,0,0,1,494.25,271.83ZM466.06,395.54a73.08,73.08,0,0,1-9.57-17.71,59.19,59.19,0,0,1-3.65-21l1.39-52.9-2.43-12.76h4.87l12.92,9.43A42.31,42.31,0,0,1,478,326.34a102.43,102.43,0,0,0,3.48,27.16q-2.44,9.93-4.7,19.61a204.44,204.44,0,0,0-3.66,20.54Zm114.84-8a99.35,99.35,0,0,1-30.31-12.31q-15-9-25.4-26.45L504,305.32h4.53a80,80,0,0,0,10.79,3.31q5.91,1.44,9.39,8a195.42,195.42,0,0,1,14.79,27.2q6.43,14.42,18.27,21l25,3.31L646,360.83,890.45,381l252.38,14.64,428.25,14.62h354.77l724.67,13.15H1621.71c-9.51,6.61-994.07-45.79-1004.27-43.12s-20.88,5.12-32,7.32L582,385.67ZM564.19,228.33l-2.43-1.41q-3.48-14.64-7-29t-5.92-29a61,61,0,0,0,2.44-17.72V132a229,229,0,0,0-4.35-25.74,100.86,100.86,0,0,0-8.87-24.32h1.39c2.31,2.2,4.87,4.65,7.65,7.32s5.69,4,8.7,4l5.92-4.72a106.52,106.52,0,0,0,1.22,16.06q1.21,8,4.69,11.33l37-17.93V93.24l-3.48-19.36,1-4.73h2.48V64.43h-2.44l-16.7,9.45-2.09,5.19-4.87,2.84-2.43-22.2a78.08,78.08,0,0,0,16.7-5.91A168.43,168.43,0,0,1,609.11,47v-3.3l10.79-3.31,10.79,4.72V47l18.79,9.45,1,4.72-2.08,6.62L638.65,71l-2.06,6.14-3.83,1.89q-2.09,35-4,70.38t-6.44,69.44l-5.92,1.41-3.49-9.47h-3.83a71,71,0,0,1-22.27,8.5A69.31,69.31,0,0,0,564.19,228.33Zm25.06,64.24a38.08,38.08,0,0,1-19.66-8.74,98,98,0,0,0-18.27-12l-3.83-4.73v-1.88h3.83l1-4.73,26.1-1.42,14.27,9.45,4.52,6.61V278l-3.48,3.3-3.48,11.34Zm18.79-93v-3.31l-1-6.61a47.42,47.42,0,0,0,2.08-15.11v-17l-3.53-54.38h-2.43l-2.09,6.14a113.52,113.52,0,0,1-17.22,11.34,131.17,131.17,0,0,1-18.27,8V140l1,8H569l34.1-14.64,1.39,8a84.59,84.59,0,0,1-17.22,13,39.57,39.57,0,0,1-19.67,5v40.15l1.4,4.72h11.83Zm91.17,102.5a33.1,33.1,0,0,0-12.35-6.38,120.62,120.62,0,0,1-13.75-4.49l-2.43,1.42-1.09-1.47,1-1.89-2.44-6.14q-4.53-6.6-11.13-8.26a22.64,22.64,0,0,1-11.14-6.38l28.58-6.65,7,1.89,5.92-1.89,18.79,13.22,1.37,6.18L704.11,294h-2.43l-1.39,3.3,1.39,1.89Z" transform="translate(-93.41 -14.36)"/><path class="cls-1" d="M917.74,229.75v-1.92l2.44-2.36h-5.92l1.4-3.31h2.08A280.69,280.69,0,0,0,931,186.26q5.56-18.87,11.48-38.26h-3.13q-26.1,7.56-50.46,17t-49.41,19.36l-5.22-4.25v-2.83h-2.44L829,171.14l-1.74-1L822.75,164v-4.17L820.31,157h2.44l1-6.61,8-3.31,11.14,2.36q30.27-10.86,60.55-18.42a477.9,477.9,0,0,0,60.2-19.37v-5.19h1q11.49,6.63,21.75,13.22a169.1,169.1,0,0,1,20.36,15.59l3.83,3.31,1.74,8.5-5.57,2.36-.7,6.14-15.66,5.67v2.83q-13.56,7.11-22.09,24.8t-22.45,24.8l-9.39,2.83-5.92,9Zm40.37,78.88q-9.75-1.86-18.62-9.92t-17.57-17.48l-15-15.11a250.6,250.6,0,0,1-27.15-18.66,128.45,128.45,0,0,1-24.35-25.27v-.94H861q28.89,9.93,58.12,21.49t51.19,45.09L975.16,302Z" transform="translate(-93.41 -14.36)"/><path class="cls-1" d="M1207.27,336.5l-5.22-.95-3.83-9.44-6.27-4.73L1181.17,311l8.7-4.72c.69-2.84,1.91-4.25,3.65-4.25a6.82,6.82,0,0,0,4.7-1.89,323.48,323.48,0,0,0,69.25-46.3,841.88,841.88,0,0,0,64-61.88v-2.82q8.7-10.86,16.88-22.91a224.73,224.73,0,0,0,14.44-24.33h1.4v1H1367V149a143.32,143.32,0,0,1-14.79,34.48q-9.59,16-20.69,31.12l-3.82,1.42v3.31l-8.7,10.39h-2.44l-17.75,25-37.58,33.08h-2.78l-2.09,4.72a71.22,71.22,0,0,1-12.74,12.28,153.93,153.93,0,0,1-13.75,9ZM1252.16,140,1240,134.34a58.27,58.27,0,0,0-14.1-14.65,57.51,57.51,0,0,1-14.09-14.64V97.49l1.39-4.72h0V88.05H1216l10.1,3.3,8.7,9.45,25,10.39,6.61,19.84-6.61,8Z" transform="translate(-93.41 -14.36)"/><path class="cls-1" d="M1562.59,336.5q-4.52-8-9.91-16.3t-11-15.35h5.56v-4.72l11.84-5.67L1564,286q24.71,0,43-19.13t37.41-35.66v-3.34h2.44v-.94l11.83-8.51v-2.83h2.43v-3.72l4.88-1.89v-4.25H1668v-2.86h3.14l1.39-4.26,3.48-.94v-3.31h2.78l1-4.25,5.92-7.08,7-4.25v-2.37h2.44v-4.25l5.91-6.14v-2.83l6.27-5.67h1.74l-8,15.59H1699v4.25h2.09l12.18-12.75v4.26a135.16,135.16,0,0,1-15.68,29.51,124,124,0,0,0-15.33,29.49l-16.35,21.26-7.31,9h-2.44l-12.87,18.42q-18.8,16.56-38.46,34.25T1562.59,336.5Zm19.14-137.93-4.87-9.91-16.7-18a28.45,28.45,0,0,0-4.7-16.06,46.38,46.38,0,0,0-10.26-11.34h11.48V139h1.39a46.38,46.38,0,0,0,17.75,10.39,49.83,49.83,0,0,1,17.4,9.45l3.83,17.47q-1,5.22-2.44,10.87a22.67,22.67,0,0,1-5.92,10.39ZM1613.4,131l-10.48-4.2-21.23-28.34-9.39-5.67-1.39-10.39h2.43a103.69,103.69,0,0,1,23.14,9.68,70.54,70.54,0,0,1,20.36,17.71,26.93,26.93,0,0,1,3.83,9.21,52,52,0,0,1,1,10.63Z" transform="translate(-93.41 -14.36)"/><path class="cls-1" d="M1939.77,383.26v-1.43l-5.22-2.83-2.09-3.31-1.39-.94-3.83-9.92h-1.39a12.48,12.48,0,0,0,7.48-2.36,11.16,11.16,0,0,1,6.44-2.36,45.4,45.4,0,0,0,13.22,2.83,86.62,86.62,0,0,1,13.22,1.89l23.67-4.25v-.47h8.35l4.52-46.29h-12.87l-5.57.94a84.54,84.54,0,0,1-17,5.91,144,144,0,0,1-18.45,3.07,15.17,15.17,0,0,1-7.82-2.13,49.29,49.29,0,0,1-7.49-5.43l-7.3-7.56h2.08v-1.89h0l11.49,3.31,55.67-9.45,7.31,1.89a102.19,102.19,0,0,0,3.48-21.49q.69-11.55.7-23.38l-1.39-3.31-3.83-.94a65.08,65.08,0,0,0-25.4,5,79.72,79.72,0,0,1-25.41,5.9,47.52,47.52,0,0,0-11.83-6.14,18.84,18.84,0,0,1-10.09-8h2.78l.7-2.83,8.35-.95,2.79-3.78,8.35-.47V244h3.13a249.59,249.59,0,0,1,25.75-2.36q12.52-.47,26.1-.47l3.83.94,5.22-2.83v-1.43h5.56a42.57,42.57,0,0,0,11.49,6.38,51.51,51.51,0,0,1,11.48,5.9,10.84,10.84,0,0,1,2.44,4.25,18.31,18.31,0,0,1,.69,5.2h-9.39v1.89l-4.53,4.72q-4.87,21.75-8,45.11t-7.36,44.55h-3.13v4.25h.7v.47h-.7v1.89l3.13,2.36v4.25l-2.43,3.78h1.39l-3.13,2.83-3.48,2.84H2009v3.33h-2.09V379l-3.13-.47v-1.89h-3.14v.94a5.74,5.74,0,0,0-5.22-2.83h-7.3Z" transform="translate(-93.41 -14.36)"/><path class="cls-1" d="M2267.91,336.5l-5.22-.95-3.82-9.44-6.27-4.73L2241.82,311l8.7-4.72c.69-2.84,1.91-4.25,3.65-4.25a6.82,6.82,0,0,0,4.7-1.89,323,323,0,0,0,69.24-46.3,841.88,841.88,0,0,0,64-61.88v-2.82q8.7-10.86,16.88-22.91a224.73,224.73,0,0,0,14.44-24.33h1.39v1h2.79V149a143.32,143.32,0,0,1-14.79,34.48q-9.57,16.08-20.71,31.17l-3.82,1.42v3.31l-8.7,10.39h-2.44l-17.75,25-37.55,33h-2.78l-2.09,4.72a72,72,0,0,1-12.7,12.28,156.16,156.16,0,0,1-13.75,9ZM2312.8,140l-12.21-5.66a58.23,58.23,0,0,0-14.09-14.65,57.51,57.51,0,0,1-14.09-14.64V97.49l1.39-4.72h0V88.05h2.79l10.1,3.3,8.69,9.45,25.06,10.39,6.61,19.84-6.61,8Z" transform="translate(-93.41 -14.36)"/></svg>